# xmcd
#
# Track frame offsets: 
#        150
#        18952
#        35798
#        55603
#        87944
#        120426
#        159533
#        175245
#        205502
#        229743
#        245850
#        270821
#        294310
#
# Disc length: 4213 seconds
#
# Revision: 0
# Processed by: cddbd v1.4PL0 Copyright (c) Steve Scherf et al.
# Submitted via: ExactAudioCopy v0.90b4
#
DISCID=a310730d
DTITLE=The Blues Project - ONOV Vol 1-Matrix Club  09-07-66
DYEAR=1900
DGENRE=
TTITLE0=Goin" Down Louisiana
TTITLE1=Steve's Song
TTITLE2=I Can't Keep From Crying
TTITLE3=Caress My Baby
TTITLE4=Flute Thing
TTITLE5=Wake Me Shake Me
TTITLE6=Kerri's Shuffle
TTITLE7=Jelly Jelly Blues
TTITLE8=You Can't Catch Me 
TTITLE9=Shake That Thing
TTITLE10=You Can't Judge A Book By Looking At The Cover
TTITLE11=Hoochie Coochie Man
TTITLE12=If You Don't Come Back
EXTD=
EXTT0=
EXTT1=
EXTT2=
EXTT3=
EXTT4=
EXTT5=
EXTT6=
EXTT7=
EXTT8=
EXTT9=
EXTT10=
EXTT11=
EXTT12=
PLAYORDER=
